<?xml version="1.0" encoding="UTF-8" standalone="no" ?>
<!DOCTYPE svg PUBLIC "-//W3C//DTD SVG 1.1//EN" "http://www.w3.org/Graphics/SVG/1.1/DTD/svg11.dtd">
<svg xmlns="http://www.w3.org/2000/svg" xmlns:xlink="http://www.w3.org/1999/xlink" version="1.1" width="1080" height="1080" viewBox="0 0 1080 1080" xml:space="preserve">
<desc>Created with Fabric.js 5.2.4</desc>
<defs>
</defs>
<g transform="matrix(1 0 0 1 540 540)" id="1a284914-ec96-4359-ae4c-a99f85ccdb17"  >
<rect style="stroke: none; stroke-width: 1; stroke-dasharray: none; stroke-linecap: butt; stroke-dashoffset: 0; stroke-linejoin: miter; stroke-miterlimit: 4; fill: rgb(255,255,255); fill-rule: nonzero; opacity: 1; visibility: hidden;" vector-effect="non-scaling-stroke"  x="-540" y="-540" rx="0" ry="0" width="1080" height="1080" />
</g>
<g transform="matrix(1 0 0 1 540 540)" id="141bae45-6438-407a-b5f9-decc7f1a545d"  >
</g>
<g transform="matrix(20.02 0 0 20.02 540 520.41)"  >
<g style="" vector-effect="non-scaling-stroke"   >
		<g transform="matrix(1 0 0 1 0 0)"  >
<path style="stroke: none; stroke-width: 1; stroke-dasharray: none; stroke-linecap: butt; stroke-dashoffset: 0; stroke-linejoin: miter; stroke-miterlimit: 4; fill: rgb(239,230,230); fill-rule: nonzero; opacity: 1;" vector-effect="non-scaling-stroke"  transform=" translate(-16, -16)" d="M 16 31 C 7.7285156 31 1 24.2709961 1 16 C 1 7.729003899999999 7.7285156 1 16 1 C 24.2714844 1 31 7.7290039 31 16 C 31 24.270996099999998 24.2714844 31 16 31 z M 16 3 C 8.8320313 3 3 8.831543 3 16 C 3 23.168457 8.8320313 29 16 29 C 23.1679687 29 29 23.168457 29 16 C 29 8.831543 23.1679688 3 16 3 z" stroke-linecap="round" />
</g>
		<g transform="matrix(1 0 0 1 0 -4.63)"  >
<circle style="stroke: none; stroke-width: 1; stroke-dasharray: none; stroke-linecap: butt; stroke-dashoffset: 0; stroke-linejoin: miter; stroke-miterlimit: 4; fill: rgb(239,230,230); fill-rule: nonzero; opacity: 1;" vector-effect="non-scaling-stroke"  cx="0" cy="0" r="3.3684211" />
</g>
		<g transform="matrix(1 0 0 1 0 4.05)"  >
<path style="stroke: none; stroke-width: 1; stroke-dasharray: none; stroke-linecap: butt; stroke-dashoffset: 0; stroke-linejoin: miter; stroke-miterlimit: 4; fill: rgb(239,230,230); fill-rule: nonzero; opacity: 1;" vector-effect="non-scaling-stroke"  transform=" translate(-16, -20.05)" d="M 20.6734371 24 L 11.3265629 24 C 10.4970303 24 9.8245611 23.3275318 9.8245611 22.4979992 L 9.8245611 21.511489899999997 C 9.8245611 18.527217899999997 12.243792500000001 16.107986499999996 15.2280645 16.107986499999996 L 16.7719345 16.107986499999996 C 19.7562084 16.107986499999996 22.1754379 18.527217899999997 22.1754379 21.511489899999994 L 22.1754379 22.497999199999995 C 22.1754379 23.3275318 21.5029697 24 20.6734371 24 z" stroke-linecap="round" />
</g>
</g>
</g>
</svg>